<mxfile host="app.diagrams.net" modified="2024-05-19T13:00:36.177Z" agent="Mozilla/5.0 (Windows NT 10.0; Win64; x64) AppleWebKit/537.36 (KHTML, like Gecko) Chrome/125.0.0.0 Safari/537.36" version="24.4.4" etag="p5V0QqkhvjlBSOqpDc3e" type="github">
  <diagram name="Page-1" id="iO_VpCfIkmOvoATDGDRV">
    <mxGraphModel>
      <root>
        <mxCell id="0" />
        <mxCell id="1" parent="0" />
      </root>
    </mxGraphModel>
  </diagram>
</mxfile>
